<svg xmlns="http://www.w3.org/2000/svg" width="1024" height="1024" viewBox="0 0 1024 1024">
  <defs>
    <linearGradient id="base" x1="0" y1="0" x2="0" y2="1">
      <stop offset="0%" stop-color="#8f6b48"/>
      <stop offset="52%" stop-color="#7a593b"/>
      <stop offset="100%" stop-color="#694b31"/>
    </linearGradient>
    <linearGradient id="edgeTone" x1="0" y1="0" x2="1" y2="1">
      <stop offset="0%" stop-color="#2c1c10" stop-opacity="0.34"/>
      <stop offset="50%" stop-color="#2c1c10" stop-opacity="0.0"/>
      <stop offset="100%" stop-color="#2c1c10" stop-opacity="0.30"/>
    </linearGradient>
    <pattern id="grain" width="64" height="64" patternUnits="userSpaceOnUse">
      <path d="M0,12 C16,2 48,20 64,10" fill="none" stroke="#4a341f" stroke-opacity="0.26" stroke-width="2"/>
      <path d="M0,28 C18,38 46,18 64,30" fill="none" stroke="#d6bc9b" stroke-opacity="0.18" stroke-width="2"/>
      <path d="M0,46 C24,34 42,58 64,44" fill="none" stroke="#4a341f" stroke-opacity="0.20" stroke-width="2"/>
      <path d="M0,60 C24,68 44,52 64,62" fill="none" stroke="#d6bc9b" stroke-opacity="0.16" stroke-width="2"/>
    </pattern>
    <pattern id="grainFine" width="48" height="48" patternUnits="userSpaceOnUse">
      <path d="M0,8 C15,2 34,14 48,8" fill="none" stroke="#4d3723" stroke-opacity="0.14" stroke-width="1.5"/>
      <path d="M0,20 C14,27 34,16 48,22" fill="none" stroke="#d9c1a2" stroke-opacity="0.10" stroke-width="1.5"/>
      <path d="M0,36 C16,30 32,44 48,35" fill="none" stroke="#4d3723" stroke-opacity="0.12" stroke-width="1.5"/>
    </pattern>
    <filter id="softBlur" x="-10%" y="-10%" width="120%" height="120%">
      <feGaussianBlur stdDeviation="0.8"/>
    </filter>
    <radialGradient id="topLight" cx="48%" cy="30%" r="64%">
      <stop offset="0%" stop-color="#f4dcc0" stop-opacity="0.18"/>
      <stop offset="100%" stop-color="#f4dcc0" stop-opacity="0.0"/>
    </radialGradient>
    <radialGradient id="centerGlow" cx="50%" cy="42%" r="58%">
      <stop offset="0%" stop-color="#c8a279" stop-opacity="0.34"/>
      <stop offset="100%" stop-color="#2f2014" stop-opacity="0.0"/>
    </radialGradient>
  </defs>

  <rect width="1024" height="1024" fill="url(#base)"/>
  <rect width="1024" height="1024" fill="url(#grain)"/>
  <rect width="1024" height="1024" fill="url(#grainFine)" opacity="0.85"/>
  <rect width="1024" height="1024" fill="url(#topLight)"/>
  <rect width="1024" height="1024" fill="url(#centerGlow)"/>
  <rect width="1024" height="1024" fill="url(#edgeTone)"/>
  <g filter="url(#softBlur)" opacity="0.24">
    <path d="M40,140 C260,90 420,220 620,160 C760,120 900,150 984,130" fill="none" stroke="#3c2818" stroke-width="10"/>
    <path d="M0,590 C170,560 340,630 520,600 C710,568 870,620 1024,590" fill="none" stroke="#3a2718" stroke-width="12"/>
    <path d="M0,800 C160,840 320,740 510,790 C690,840 850,760 1024,810" fill="none" stroke="#d5b892" stroke-opacity="0.44" stroke-width="8"/>
  </g>
</svg>
